<svg xmlns="http://www.w3.org/2000/svg" width="720" height="450" viewBox="0 0 720 450">
<defs>
  <linearGradient id="ground" x1="0" y1="0" x2="0" y2="1"><stop offset="0" stop-color="#35482f"/><stop offset="1" stop-color="#18231c"/></linearGradient>
  <linearGradient id="water" x1="0" y1="0" x2="1" y2="1"><stop offset="0" stop-color="#30483e"/><stop offset="1" stop-color="#172822"/></linearGradient>
</defs>
<rect width="720" height="450" fill="url(#ground)"/>
<path d="M0 44 C123 13 244 43 365 24 C490 5 604 25 720 6 L720 152 C603 166 491 146 382 163 C249 184 128 158 0 184Z" fill="#2d3d29"/>
<g fill="#142019" opacity=".95"><path d="M12 128 l24-63 24 63H47l19 42H6l18-42z"/><path d="M73 144 l21-55 21 55h-12l17 38H68l17-38z"/><path d="M621 127 l25-66 25 66h-14l20 45h-62l20-45z"/></g>
<path d="M0 234 C138 209 254 237 379 219 C494 202 600 217 720 201" fill="none" stroke="#77693c" stroke-width="10" opacity=".4"/>
<path d="M-20 388 C112 345 213 348 315 368 C426 391 521 383 744 324" fill="none" stroke="url(#water)" stroke-width="82" opacity=".93"/>
<path d="M-20 371 C113 335 221 339 318 356 C427 376 523 367 740 311" fill="none" stroke="#768a68" stroke-width="4" opacity=".24"/>
<g opacity=".95">
  <rect x="130" y="184" width="62" height="45" rx="4" fill="#6b4a28"/>
  <rect x="140" y="174" width="42" height="12" rx="5" fill="#bb8a43"/>
  <rect x="223" y="205" width="58" height="42" rx="4" fill="#694728"/>
  <rect x="232" y="195" width="40" height="12" rx="5" fill="#b98542"/>
  <rect x="328" y="177" width="65" height="46" rx="4" fill="#6f4c29"/>
  <rect x="338" y="167" width="45" height="12" rx="5" fill="#c1924b"/>
</g>
<g fill="#d2a451" opacity=".75"><circle cx="151" cy="198" r="3"/><circle cx="162" cy="201" r="2"/><circle cx="244" cy="218" r="3"/><circle cx="257" cy="215" r="2"/><circle cx="350" cy="190" r="3"/><circle cx="365" cy="194" r="2"/></g>
<g stroke="#8a713f" stroke-width="4" opacity=".45"><path d="M20 260 l112 72"/><path d="M90 242 l111 74"/><path d="M422 231 l105 58"/><path d="M489 220 l108 55"/></g>
<g fill="#1a281e"><circle cx="536" cy="192" r="35"/><rect x="529" y="190" width="14" height="57"/><circle cx="601" cy="228" r="28"/><rect x="595" y="224" width="12" height="49"/></g>
<path d="M445 450 C427 402 439 360 477 326 C516 290 538 262 536 227" fill="none" stroke="#ad874d" stroke-width="17" opacity=".32"/>
<rect width="720" height="450" fill="#06100c" opacity=".2"/>
</svg>