<svg xmlns="http://www.w3.org/2000/svg" width="720" height="450" viewBox="0 0 720 450">
<defs>
  <linearGradient id="ground" x1="0" y1="0" x2="0" y2="1"><stop offset="0" stop-color="#33452f"/><stop offset="1" stop-color="#18231c"/></linearGradient>
  <linearGradient id="roof" x1="0" y1="0" x2="0" y2="1"><stop offset="0" stop-color="#493024"/><stop offset="1" stop-color="#261b16"/></linearGradient>
</defs>
<rect width="720" height="450" fill="url(#ground)"/>
<path d="M0 66 C128 39 241 69 351 46 C477 20 589 44 720 18 L720 173 C597 184 493 165 380 182 C249 202 129 179 0 201Z" fill="#2b3b29"/>
<g fill="#142019" opacity=".95"><path d="M33 139 l23-60 23 60H66l18 41H28l17-41z"/><path d="M91 148 l19-50 19 50h-11l16 36H86l16-36z"/><path d="M655 138 l23-61 23 61h-13l18 42h-57l18-42z"/></g>
<path d="M0 268 C126 239 239 271 354 249 C465 229 594 238 720 214 L720 450 L0 450Z" fill="#293a28"/>
<path d="M-15 421 C123 374 231 366 343 379 C454 393 572 375 735 311" fill="none" stroke="#9d7947" stroke-width="18" opacity=".34"/>
<g>
  <rect x="244" y="167" width="232" height="113" rx="3" fill="#51351f"/>
  <path d="M218 174 l144-82 145 82z" fill="url(#roof)"/>
  <rect x="270" y="211" width="49" height="69" fill="#2b2018"/>
  <rect x="345" y="201" width="32" height="28" fill="#d3a052" opacity=".72"/>
  <rect x="401" y="201" width="32" height="28" fill="#d3a052" opacity=".66"/>
  <rect x="455" y="119" width="17" height="128" fill="#33241c"/>
  <path d="M463 113 q-18-22 0-42 q19 20 2 40 q18-11 26 7 q-13 10-28-5" fill="#9d9479" opacity=".24"/>
  <rect x="220" y="269" width="285" height="15" fill="#211914" opacity=".72"/>
  <path d="M318 166 l44-30 44 30" fill="none" stroke="#a67a40" stroke-width="5" opacity=".55"/>
</g>
<g fill="#c9974a" opacity=".72"><rect x="350" y="207" width="9" height="16"/><rect x="364" y="207" width="9" height="16"/><rect x="406" y="207" width="9" height="16"/><rect x="420" y="207" width="9" height="16"/></g>
<g fill="#1a281e"><circle cx="102" cy="259" r="39"/><rect x="94" y="255" width="16" height="67"/><circle cx="588" cy="245" r="34"/><rect x="581" y="241" width="14" height="62"/></g>
<g opacity=".83">
  <rect x="538" y="302" width="87" height="57" rx="3" fill="#573823"/>
  <path d="M526 306 l55-40 58 40z" fill="#2d211a"/>
  <rect x="553" y="325" width="22" height="34" fill="#2b1e17"/>
  <rect x="595" y="321" width="17" height="15" fill="#d0a056" opacity=".72"/>
</g>
<path d="M0 330 C105 307 196 313 279 329" fill="none" stroke="#78613a" stroke-width="5" opacity=".36"/>
<path d="M494 448 C489 407 512 374 550 347" fill="none" stroke="#c69b56" stroke-width="5" opacity=".22"/>
<rect width="720" height="450" fill="#07110d" opacity=".2"/>
</svg>